PathFileType	4	(X/Y/Z)	D:\TRACE\v60_Jaco2_6-2-23\JustArmDRS_Motion1_1-v60.trc
DataRate	CameraRate	NumFrames	NumMarkers	Units	OrigDataRate	OrigDataStartFrame	OrigNumFrames
100.00	100.00	      38	9	mm	100.00	4278	      6844
Frame#	Time	front left toe			Front right toe			aft left toe			aft right toe			Arm			FL body			FR body			AL Body			AR Body			
		X1	Y1	Z1	X2	Y2	Z2	X3	Y3	Z3	X4	Y4	Z4	X5	Y5	Z5	X6	Y6	Z6	X7	Y7	Z7	X8	Y8	Z8	X9	Y9	Z9	

4278	42.770	-150.16029	27.27408	-161.45280	257.82809	25.18443	-205.12625	-84.68555	4.13563	442.47519	318.51666	5.60890	431.34467	104.80124	1123.69629	-599.26471	-27.28921	587.01270	-301.57178	132.30951	584.48071	-318.39871	69.34123	575.36475	639.14191	225.96294	567.16101	624.10406	
4279	42.780	-150.24478	27.31931	-161.44310	257.41922	25.22667	-205.09734	-84.90151	3.96065	442.58377	318.39905	5.42197	431.48364	105.06541	1124.03906	-598.80768	-27.00337	587.23761	-301.31210	132.04427	584.67151	-318.80334	69.49403	575.14557	639.26318	226.17215	566.86011	624.27966	
4280	42.790	-150.57753	27.44327	-161.38406	256.97760	25.33539	-204.98073	-85.26767	3.76713	442.69977	318.29391	5.25731	431.63007	105.27757	1124.37659	-598.49823	-26.90193	587.37030	-301.13687	132.15993	584.79626	-318.60953	69.54871	574.86133	639.38513	226.39091	566.48993	624.27460	
4281	42.800	-151.06030	27.69193	-161.30527	256.62918	25.33092	-204.94539	-85.50956	3.58699	442.74387	318.03329	5.05942	431.71979	105.53037	1124.69604	-597.96460	-26.91685	587.59985	-301.04047	132.31633	584.80469	-318.35754	69.85971	574.57678	639.20355	227.60234	566.22144	624.41248	
4282	42.810	-151.29198	27.84624	-161.28741	256.53836	25.43080	-204.92780	-85.61556	3.53869	442.73859	317.73517	4.81615	431.77975	105.56608	1124.85107	-597.63605	-26.94408	587.70844	-300.90750	132.38188	584.91003	-318.12057	69.96671	574.34485	639.46069	226.60234	566.05023	624.44061	
4283	42.820	-151.69312	27.95558	-161.20702	256.33823	25.45539	-204.90108	-85.69398	3.32179	442.76984	317.41898	4.57459	431.78754	105.45721	1124.95496	-597.38422	-26.89612	587.80408	-300.73822	132.53352	584.83154	-317.52255	70.01300	574.21912	639.60675	226.48526	565.81714	624.49506	
4284	42.830	-152.21422	28.12585	-161.11327	256.15634	25.51576	-204.77481	-85.83572	3.11706	442.80734	316.77097	4.25645	431.74863	105.40690	1125.06628	-597.11810	-26.98392	587.86810	-300.62170	132.52895	584.90277	-317.41238	69.91145	574.03662	639.96851	226.61482	565.60315	624.60663	
4285	42.840	-152.50264	28.16868	-161.10725	255.87802	25.53605	-204.67828	-86.08288	2.91477	442.89749	316.43216	4.07229	431.72995	105.26529	1124.95178	-596.89935	-27.17063	588.00983	-300.45895	132.45204	584.90234	-317.30231	69.89923	573.81653	640.12354	226.66557	565.45679	624.85559	
4286	42.850	-152.74554	28.20973	-161.08667	255.45769	25.67342	-204.62251	-86.32586	2.77306	442.93805	316.30249	3.98460	431.76633	105.04372	1124.99646	-596.62610	-27.38832	588.08685	-300.32874	132.29295	584.97095	-317.16641	70.17819	573.60242	640.92493	226.34457	565.20129	625.61804	
4287	42.860	-152.82823	28.16778	-161.09587	255.02963	25.71914	-204.59250	-86.69651	2.83470	443.00113	316.12192	3.88313	431.77463	104.91753	1125.06531	-596.44641	-27.54155	588.04663	-300.17978	131.75006	584.86871	-316.69293	69.90034	573.52148	640.42334	226.23050	564.90833	625.27106	
4288	42.870	-152.96297	28.15827	-161.04883	254.78867	25.78115	-204.59184	-87.08320	2.72817	443.01053	315.85831	3.68735	431.78564	104.64500	1125.15686	-596.15399	-27.66006	588.05286	-300.11276	131.46950	585.00421	-316.56207	69.82956	573.31659	640.54388	226.09145	564.68524	625.37347	
4289	42.880	-153.30034	28.22058	-160.92097	254.63896	25.86336	-204.50824	-87.46841	2.49868	443.01035	315.50351	3.52785	431.79175	104.43512	1125.50781	-595.83917	-27.91642	588.08191	-299.90125	131.32106	585.05554	-316.54483	69.72703	573.05798	640.65393	225.92329	564.45758	625.46313	
4290	42.890	-153.76190	28.30680	-160.81650	254.24548	25.94051	-204.46684	-87.80286	2.38502	442.92978	315.25342	3.42112	431.82428	103.93026	1125.78992	-595.64490	-28.24467	588.17645	-299.74869	131.63905	585.27722	-316.81479	69.43202	572.92224	640.53510	225.78481	564.33221	625.56049	
4291	42.900	-154.19537	28.42292	-160.64995	253.51884	25.88174	-204.53809	-88.26611	2.29905	443.06973	314.78922	3.28468	431.88080	103.19863	1125.95703	-595.40527	-28.43350	588.23340	-299.61862	131.38626	585.37341	-316.75626	69.22532	572.54651	640.81940	225.92769	564.27026	625.44202	
4292	42.910	-154.89767	28.73756	-160.57005	252.97263	25.93645	-204.50871	-88.58621	2.12521	443.16086	313.98859	3.04538	431.95654	102.52679	1126.24243	-594.99200	-28.60409	588.27032	-299.43735	131.21214	585.47668	-316.68829	68.97520	572.38342	640.84351	225.83641	564.24274	625.57159	
4293	42.920	-155.16025	28.73110	-160.54185	252.58049	26.02715	-204.50887	-88.92443	2.01267	443.24252	313.51053	2.83282	432.09134	102.10678	1126.40491	-594.75238	-28.76964	588.36664	-299.42377	130.91599	585.69623	-316.55591	68.81261	572.26324	640.91235	225.76711	564.20074	625.72882	
4294	42.930	-155.35106	28.62598	-160.49814	252.50041	26.14925	-204.39706	-89.45155	1.92181	443.33685	313.14154	2.73946	432.17679	101.77931	1126.70642	-594.45465	-28.94099	588.38824	-299.31873	130.44658	585.95752	-316.43027	68.70096	572.03485	641.10242	225.62225	564.15869	625.91693	
4295	42.940	-155.71300	28.59114	-160.36531	252.08760	26.22118	-204.20074	-89.83859	1.91742	443.45020	313.00430	2.68556	432.20880	101.07872	1126.84192	-594.17828	-29.26234	588.40570	-299.20285	129.51611	585.87585	-315.76700	68.69829	571.82855	640.94012	225.38499	564.02484	626.04724	
4296	42.950	-156.12651	28.55775	-160.32817	251.59602	26.32921	-204.09862	-90.35740	1.92171	443.54068	312.74100	2.64714	432.24792	100.36536	1127.10107	-593.81750	-29.86802	588.58026	-298.98468	129.68878	586.24982	-316.31326	68.50178	571.73840	641.00751	224.73221	563.80029	626.73859	
4297	42.960	-156.66357	28.68786	-160.27863	251.01857	26.45604	-204.05087	-91.01143	1.85470	443.55835	312.30933	2.54422	432.23743	99.94697	1127.34509	-593.47693	-30.35973	588.73865	-298.85056	128.84499	586.11523	-315.94693	67.98242	571.57233	640.65631	224.45790	563.64832	626.80493	
4298	42.970	-157.37956	28.87736	-160.24881	250.50818	26.39506	-204.18085	-91.26186	1.64382	443.63324	311.35992	2.31286	432.22641	99.47807	1127.58752	-593.07617	-30.68586	588.68414	-298.77975	128.42303	586.17004	-315.74182	67.66472	571.38788	641.44092	224.08623	563.34326	626.32941	
4299	42.980	-158.06729	29.01148	-160.27728	250.21016	26.49035	-204.13884	-91.66342	1.43821	443.56058	310.87885	2.25979	432.26617	99.12736	1127.68347	-592.84839	-31.05777	588.62781	-298.61285	128.22084	586.62067	-316.32397	67.38787	571.16406	641.60400	223.82132	563.18677	626.38184	
4300	42.990	-158.48050	28.96715	-160.22803	249.50784	26.55970	-204.12274	-92.28355	1.42815	443.60864	310.65482	2.20225	432.44675	98.61781	1127.74634	-592.52502	-31.72491	588.74493	-298.31464	127.70860	586.59027	-316.13531	67.14474	570.94385	641.71417	223.83861	563.15411	626.16187	
4301	43.000	-158.91916	28.99147	-160.12218	249.02315	26.55076	-204.15587	-92.72352	1.29152	443.69937	310.29147	2.17958	432.53598	97.94395	1127.88110	-592.31018	-32.28853	588.86810	-298.18155	127.35878	586.68274	-316.21198	66.71442	570.83264	641.86194	223.59073	562.98767	626.35632	
4302	43.010	-159.30956	29.04349	-160.02357	248.47769	26.46779	-204.03731	-93.27576	1.30092	443.64481	309.71451	2.16004	432.57742	97.23299	1128.00769	-592.19043	-32.79340	588.84143	-298.19489	126.90628	586.65350	-315.75571	66.31378	570.78748	642.03937	223.15822	562.86676	626.53131	
4303	43.020	-159.82552	29.03430	-159.91798	247.63452	26.40584	-204.18326	-93.87369	1.37032	443.53748	308.90927	2.02962	432.57773	96.70628	1128.11011	-592.06055	-33.36840	588.87427	-298.25745	126.01744	586.61871	-314.83514	65.96172	570.72314	642.17542	222.75838	562.78589	626.74408	
4304	43.030	-160.67375	29.25591	-159.90675	246.96114	26.46280	-204.07913	-94.34708	1.19807	443.46268	308.38300	2.00737	432.57245	95.93914	1128.30664	-591.69232	-33.98223	588.96118	-298.18582	125.22232	586.75403	-314.79498	65.58614	570.58398	642.25031	222.49226	562.71210	626.85669	
4305	43.040	-161.10872	29.35149	-159.65610	246.63734	26.57152	-203.79187	-95.08074	1.02947	443.49445	308.10406	1.98245	432.53467	95.08913	1128.41516	-591.66980	-34.69111	589.19818	-297.90945	125.41035	586.88934	-315.02274	64.95882	570.32617	642.38983	221.47893	562.39612	627.00110	
4306	43.050	-161.57338	29.27410	-159.50157	246.20107	26.68690	-203.65947	-95.57734	1.01965	443.74631	307.71661	1.86591	432.55917	94.29100	1128.55176	-591.50439	-35.02797	589.27753	-297.70996	124.70192	587.03693	-314.93039	64.69659	570.10742	642.23260	221.01976	562.49854	627.62482	
4307	43.060	-162.20657	29.26094	-159.58549	245.63495	26.77473	-203.71997	-96.28399	1.04881	443.84943	306.46771	1.64167	432.49963	93.66816	1128.76453	-591.28430	-35.42701	589.26453	-297.59167	124.21680	587.18146	-314.76288	64.04440	570.01862	642.36511	221.29211	562.46210	627.64795	
4308	43.070	-162.67354	29.27682	-159.66644	244.79228	26.80760	-203.82553	-96.73428	0.80703	443.93582	305.91891	1.59369	432.61893	93.09807	1128.85205	-590.80176	-35.95265	589.26117	-297.43112	123.58895	587.10046	-314.57028	63.39851	570.08179	642.73669	219.96016	562.30707	627.58179	
4309	43.080	-163.68709	29.42554	-159.64481	244.37805	26.84367	-203.74055	-97.15160	0.60893	443.99411	305.37476	1.51016	432.63773	92.41007	1128.83264	-590.78448	-36.79824	589.41754	-297.17401	122.47689	587.12170	-314.37198	62.91587	569.95221	642.80621	219.71336	562.37018	627.33380	
4310	43.090	-164.31857	29.35517	-159.54883	243.59877	26.75033	-203.82188	-97.99152	0.67813	444.10449	304.99930	1.43207	432.62625	91.62774	1129.01660	-590.66528	-37.32597	589.38464	-297.08893	122.27334	587.36420	-314.62329	62.37147	569.81329	642.87567	219.28995	562.32446	627.56549	
4311	43.100	-164.78802	29.38084	-159.54266	243.03178	26.82958	-203.70616	-98.80384	0.66435	444.12842	303.96521	1.18739	432.59567	91.12872	1129.03333	-590.33386	-38.01736	589.37445	-297.06754	121.81720	587.38855	-314.42294	61.84425	569.61804	642.92804	218.63976	562.18121	627.77631	
4312	43.110	-165.27972	29.42579	-159.71379	242.21042	26.72280	-203.81265	-99.34400	0.52272	444.05161	303.55844	1.27685	432.61996	90.48198	1129.11438	-590.03778	-38.66776	589.35059	-296.95737	121.05098	587.37152	-314.22409	61.19114	569.57874	643.06494	218.01465	562.10938	627.82935	
4313	43.120	-166.22681	29.36938	-159.71381	241.66997	26.84028	-203.68871	-99.97244	0.59033	444.15277	302.92404	1.32854	432.72171	89.71736	1129.29578	-590.03754	-39.44293	589.48285	-296.87839	119.77209	587.39453	-313.86722	60.33369	569.42950	643.27032	217.10504	561.87476	628.09674	
4314	43.130	-166.88092	29.45584	-159.58882	241.10880	27.00353	-203.54735	-100.67998	0.70899	444.10892	302.29413	1.36887	432.84570	88.65378	1129.58142	-590.02197	-40.26929	589.60553	-296.88693	118.97765	587.46027	-313.92563	60.07844	569.30267	643.01563	216.44144	561.83795	628.23676	
4315	43.140	-167.43185	29.19564	-159.50685	240.22386	26.98373	-203.62361	-101.58038	0.73268	444.00165	301.09967	1.04149	432.71341	87.84917	1129.60425	-589.78522	-40.92514	589.53107	-296.76297	118.43951	587.40802	-313.81021	59.61794	569.28137	643.09088	215.46806	561.86890	628.46375	
